<svg id="Application" height="512" viewBox="0 0 64 64" width="512" xmlns="http://www.w3.org/2000/svg"><path d="m45 1h-26a5.006 5.006 0 0 0 -5 5v52a5.006 5.006 0 0 0 5 5h26a5.006 5.006 0 0 0 5-5v-52a5.006 5.006 0 0 0 -5-5zm-7.618 2-1 2h-8.764l-1-2zm10.618 55a3 3 0 0 1 -3 3h-26a3 3 0 0 1 -3-3v-52a3 3 0 0 1 3-3h5.382l1.723 3.447a1 1 0 0 0 .895.553h10a1 1 0 0 0 .9-.553l1.718-3.447h5.382a3 3 0 0 1 3 3z"/><path d="m32.651 16.241a1 1 0 0 0 -1.3 0l-9.056 8.052a1 1 0 1 0 1.414 1.414l.291-.293v9.586a1 1 0 0 0 1 1h14a1 1 0 0 0 1-1v-9.586l.293.293a1 1 0 0 0 1.414-1.414zm5.349 17.759h-12v-10.54l6-5.143 6 5.143z"/><path d="m39 38h-10a1 1 0 0 0 0 2h10a1 1 0 0 0 0-2z"/><path d="m39 41h-14a1 1 0 0 0 0 2h14a1 1 0 0 0 0-2z"/><path d="m33 44h-8a1 1 0 0 0 0 2h8a1 1 0 0 0 0-2z"/><path d="m37 44h-1a1 1 0 0 0 0 2h1a1 1 0 0 0 0-2z"/><path d="m26 58h-8a1 1 0 0 0 0 2h8a1 1 0 0 0 0-2z"/><path d="m30 58h-1a1 1 0 0 0 0 2h1a1 1 0 0 0 0-2z"/><path d="m25 40h1a1 1 0 0 0 0-2h-1a1 1 0 0 0 0 2z"/></svg>