<svg height="512" viewBox="0 0 64 64" width="512" xmlns="http://www.w3.org/2000/svg"><path d="m15 58h-8a1 1 0 0 0 0 2h8a1 1 0 0 0 0-2z"/><path d="m19 58h-1a1 1 0 0 0 0 2h1a1 1 0 0 0 0-2z"/><path d="m44.65 13.169a1 1 0 0 0 -1.3 0l-7.771 6.91a1 1 0 1 0 1.414 1.414l.007-.007v7.871a1 1 0 0 0 1 1h12a1 1 0 0 0 1-1v-7.871l.007.007a1 1 0 1 0 1.414-1.414zm4.35 15.188h-10v-8.826l5-4.285 5 4.285z"/><path d="m58 9h-19v-3a5.006 5.006 0 0 0 -5-5h-26a5.006 5.006 0 0 0 -5 5v52a5.006 5.006 0 0 0 5 5h26a5.006 5.006 0 0 0 5-5v-23h19a3 3 0 0 0 3-3v-20a3 3 0 0 0 -3-3zm-31.618-6-1 2h-8.764l-1-2zm10.618 55a3 3 0 0 1 -3 3h-26a3 3 0 0 1 -3-3v-52a3 3 0 0 1 3-3h5.382l1.723 3.447a1 1 0 0 0 .895.553h10a1 1 0 0 0 .895-.553l1.723-3.447h5.382a3 3 0 0 1 3 3v3h-7a3 3 0 0 0 -3 3v20a3 3 0 0 0 3 3v5a1 1 0 0 0 .659.94 1.013 1.013 0 0 0 .341.06 1 1 0 0 0 .769-.36l4.7-5.64h.531zm22-26a1 1 0 0 1 -1 1h-22a1 1 0 0 0 -.769.36l-3.231 3.878v-3.238a1 1 0 0 0 -1-1h-1a1 1 0 0 1 -1-1v-20a1 1 0 0 1 1-1h28a1 1 0 0 1 1 1z"/></svg>
