<svg height="512pt" viewBox="0 0 512 512.043" width="512pt" xmlns="http://www.w3.org/2000/svg"><path d="m413.550781 229.488281c-2.054687 0-4.128906-.632812-5.910156-1.941406-4.449219-3.269531-5.410156-9.527344-2.140625-13.980469 9.957031-13.554687 15.222656-29.621094 15.222656-46.460937 0-16.839844-5.265625-32.90625-15.222656-46.460938-3.269531-4.453125-2.3125-10.710937 2.140625-13.980469 4.449219-3.265624 10.707031-2.3125 13.976563 2.140626 12.5 17.015624 19.101562 37.171874 19.101562 58.300781 0 21.128906-6.601562 41.289062-19.101562 58.300781-1.957032 2.667969-4.992188 4.082031-8.066407 4.082031zm0 0"/><path d="m442.378906 251.125c-2.070312 0-4.15625-.640625-5.945312-1.96875-4.4375-3.285156-5.367188-9.550781-2.078125-13.984375 14.695312-19.828125 22.464843-43.363281 22.464843-68.066406s-7.769531-48.238281-22.464843-68.066407c-3.289063-4.4375-2.359375-10.699218 2.078125-13.988281 4.4375-3.289062 10.695312-2.359375 13.984375 2.078125 17.269531 23.296875 26.398437 50.953125 26.398437 79.976563 0 29.019531-9.128906 56.675781-26.398437 79.972656-1.960938 2.648437-4.980469 4.046875-8.039063 4.046875zm0 0"/><path d="m384.738281 207.859375c-2.019531 0-4.058593-.609375-5.820312-1.878906-4.488281-3.21875-5.511719-9.46875-2.292969-13.953125 5.234375-7.289063 8.003906-15.90625 8.003906-24.921875s-2.769531-17.632813-8.003906-24.921875c-3.21875-4.488282-2.195312-10.734375 2.292969-13.957032 4.488281-3.21875 10.730469-2.191406 13.953125 2.292969 7.6875 10.710938 11.753906 23.363281 11.753906 36.585938 0 13.222656-4.0625 25.875-11.753906 36.585937-1.953125 2.71875-5.019532 4.167969-8.132813 4.167969zm0 0"/><path d="m98.445312 229.488281c-3.070312 0-6.105468-1.414062-8.0625-4.082031-12.5-17.015625-19.105468-37.171875-19.105468-58.300781 0-21.128907 6.605468-41.289063 19.105468-58.300781 3.269532-4.453126 9.527344-5.410157 13.976563-2.140626 4.449219 3.269532 5.40625 9.527344 2.140625 13.976563-9.960938 13.558594-15.222656 29.625-15.222656 46.464844 0 16.835937 5.261718 32.902343 15.222656 46.460937 3.269531 4.449219 2.308594 10.707032-2.140625 13.976563-1.785156 1.3125-3.855469 1.945312-5.914063 1.945312zm0 0"/><path d="m69.621094 251.125c-3.0625 0-6.078125-1.398438-8.042969-4.046875-17.269531-23.296875-26.394531-50.953125-26.394531-79.972656 0-29.023438 9.128906-56.679688 26.398437-79.976563 3.285157-4.433594 9.550781-5.367187 13.984375-2.078125 4.4375 3.289063 5.367188 9.550781 2.078125 13.988281-14.695312 19.828126-22.464843 43.363282-22.464843 68.066407s7.769531 48.238281 22.464843 68.066406c3.289063 4.4375 2.355469 10.699219-2.078125 13.984375-1.789062 1.328125-3.875 1.96875-5.945312 1.96875zm0 0"/><path d="m127.261719 207.859375c-3.113281 0-6.179688-1.449219-8.132813-4.167969-7.6875-10.710937-11.753906-23.359375-11.753906-36.585937 0-13.222657 4.0625-25.875 11.753906-36.585938 3.21875-4.484375 9.464844-5.511719 13.953125-2.289062 4.488281 3.21875 5.511719 9.46875 2.292969 13.953125-5.234375 7.289062-8.003906 15.90625-8.003906 24.921875s2.769531 17.632812 8.003906 24.921875c3.21875 4.484375 2.195312 10.734375-2.292969 13.957031-1.761719 1.265625-3.804687 1.875-5.820312 1.875zm0 0"/><path d="m346.320312 315.132812c-4.285156-7.671874-9.019531-14.894531-13.328124-20.34375-3.867188-4.882812-10.335938-13.054687-18.722657-9.304687-2.132812.953125-4.90625 3.25-5.828125 6.96875-14.003906-29.863281-41.296875-50.859375-62.085937-59.613281-14.253907-6.003906-24.339844-5.945313-29.972657.171875-1.960937 2.128906-5.992187 8.085937-1.128906 17.410156 4.863282 9.324219 2.707032 30.960937-5.769531 57.875-2.664063 8.453125-5.585937 16.3125-8.410156 23.144531-.042969-.230468-.082031-.445312-.121094-.636718-3.4375-18.027344-7.074219-24.488282-14.421875-25.601563-1.121094-.164063-10.96875-1.265625-13.148438 11.933594-.523437 2.035156-3.730468 9.546875-6.5625 16.183593-7.25 16.988282-18.207031 42.664063-22.136718 61.699219-8.609375 41.679688 7.316406 71.515625 53.238281 99.722657.441406.394531.921875.753906 1.433594 1.0625 17.632812 10.757812 37.511719 16.195312 57.480469 16.195312.320312 0 .640624-.003906.960937-.003906 15.78125-.097656 31.605469-3.589844 46.394531-10.542969 2.25-1.0625 9.683594-5.089844 10.136719-5.421875 35.8125-24.457031 54.382813-56.835938 55.195313-96.238281.746093-36.160157-14.21875-68.5625-23.203126-84.660157zm-52.433593 168.914063c-11.816407 5.300781-24.402344 7.933594-36.949219 7.945313-15.507812-.035157-30.949219-4.074219-44.800781-12.035157-3.539063-8.40625-3.882813-20 4.910156-30.015625.777344-.894531 1.546875-1.777344 2.292969-2.652344 22.058594-25.804687 35.042968-40.988281 38.894531-73.222656 14.847656 16.695313 36.230469 46.097656 43.257813 83.027344 2.039062 10.707031-.519532 19.765625-7.605469 26.953125zm55.589843-82.796875c-.921874 24.011719-10.089843 44.933594-27.320312 62.445312-.011719-3.375-.351562-6.828124-1.019531-10.339843-12.46875-65.535157-63.160157-108.109375-65.308594-109.890625-2.984375-2.46875-7.125-2.992188-10.632813-1.34375-3.503906 1.648437-5.742187 5.171875-5.742187 9.046875 0 41.820312-9.613281 53.066406-35.320313 83.132812-.714843.835938-1.441406 1.671875-2.148437 2.484375-7.121094 8.113282-11.175781 17.945313-12.003906 28.074219-27.460938-22.175781-30.476563-42.726563-25.714844-65.796875 3.179687-15.375 11.992187-36.828125 18.785156-52.8125.457031 4.523438.597657 8.714844.175781 11.621094-.421874 2.929687-1.714843 11.855468 5.851563 15.597656 1.679687.832031 7.613281 3.074219 13.503906-2.941406 6.804688-6.957032 18.1875-31.566406 25.914063-56.027344 6.238281-19.765625 12.046875-45.539062 7.777344-64.148438 8.023437 3.039063 20.347656 9.726563 32.484374 21.195313 13.984376 13.210937 30.320313 35.253906 28.734376 65.222656-.15625 2.914063-.566407 10.65625 6.300781 13.964844 3.921875 1.886719 8.464843 1.1875 11.855469-1.828125 4.136718-3.675781 8.828124-15.011719 11.503906-27.074219 10.785156 18.417969 23.527344 48.074219 22.324218 79.417969zm0 0"/><path d="m501.980469 0h-60c-5.519531 0-9.996094 4.476562-9.996094 10s4.476563 10 9.996094 10h50v21.269531h-152.785157c2.324219-4.730469 3.628907-10.046875 3.628907-15.664062v-15.605469c0-5.523438-4.476563-10-9.996094-10h-322.808594c-5.519531 0-9.9960935 4.476562-9.9960935 10v41.269531c0 5.523438 4.4765625 10 9.9960935 10h190.890625v10.316407c0 13.816406 11.242188 25.058593 25.0625 25.058593h60.054688c13.820312 0 25.0625-11.242187 25.0625-25.058593v-10.316407h190.890625c5.519531 0 9.996093-4.476562 9.996093-10v-41.269531c0-5.523438-4.476562-10-9.996093-10zm-179.152344 20v5.605469c0 8.636719-7.027344 15.664062-15.664063 15.664062h-102.328124c-8.636719 0-15.664063-7.027343-15.664063-15.664062v-5.605469zm-302.808594 0h149.15625v5.605469c0 5.613281 1.304688 10.933593 3.628907 15.664062h-152.785157zm271.070313 51.585938c0 2.789062-2.269532 5.0625-5.0625 5.0625h-60.054688c-2.792968 0-5.0625-2.273438-5.0625-5.0625v-10.316407h70.179688zm0 0"/><path d="m256 209.332031c-21.886719 0-39.691406-17.804687-39.691406-39.691406 0-19.507813 27.128906-48.042969 32.566406-53.566406 1.878906-1.90625 4.445312-2.984375 7.125-2.984375s5.246094 1.078125 7.125 2.984375c5.4375 5.523437 32.566406 34.058593 32.566406 53.566406 0 21.886719-17.804687 39.691406-39.691406 39.691406zm0-71.5c-10.445312 12.027344-19.695312 25.816407-19.695312 31.808594 0 10.859375 8.835937 19.695313 19.695312 19.695313s19.695312-8.835938 19.695312-19.695313c0-5.992187-9.25-19.777344-19.695312-31.808594zm0 0"/><path d="m394.988281 20c-.648437 0-1.308593-.070312-1.960937-.203125-.628906-.128906-1.257813-.320313-1.867188-.570313-.601562-.25-1.179687-.558593-1.722656-.917968-.550781-.359375-1.058594-.78125-1.519531-1.238282-.460938-.460937-.878907-.972656-1.25-1.523437-.359375-.539063-.667969-1.117187-.917969-1.726563-.25-.601562-.441406-1.230468-.570312-1.871093-.132813-.640625-.191407-1.300781-.191407-1.949219 0-2.628906 1.070313-5.210938 2.929688-7.070312.460937-.460938.96875-.878907 1.519531-1.238282.542969-.363281 1.121094-.671875 1.722656-.921875.609375-.25 1.238282-.441406 1.867188-.570312 3.25-.660157 6.710937.410156 9.03125 2.730469 1.859375 1.859374 2.929687 4.441406 2.929687 7.070312 0 .648438-.070312 1.308594-.199219 1.949219-.132812.640625-.320312 1.269531-.570312 1.871093-.25.609376-.5625 1.1875-.921875 1.726563-.359375.550781-.777344 1.0625-1.238281 1.523437-1.859375 1.859376-4.441406 2.929688-7.070313 2.929688zm0 0"/></svg>