<svg height="511pt" viewBox="0 -48 511.998 511" width="511pt" xmlns="http://www.w3.org/2000/svg"><path d="m480.453125 160.820312h-16.550781v-128.773437c0-17.394531-14.148438-31.546875-31.546875-31.546875h-400.808594c-17.394531 0-31.546875 14.152344-31.546875 31.546875v160.324219c0 17.394531 14.152344 31.546875 31.546875 31.546875h104.726563v.515625c0 4.144531 3.359374 7.5 7.5 7.5 4.140624 0 7.5-3.355469 7.5-7.5v-.515625h73.175781v.515625c0 4.144531 3.359375 7.5 7.5 7.5 4.144531 0 7.5-3.355469 7.5-7.5v-.515625h73.179687v.515625c0 4.144531 3.355469 7.5 7.5 7.5 4.140625 0 7.5-3.355469 7.5-7.5v-.515625h25.082032v120.761719c0 4.140624 3.355468 7.5 7.5 7.5 4.140624 0 7.5-3.359376 7.5-7.5v-152.308594c0-9.125 7.421874-16.550782 16.546874-16.550782h8.53125v8.535157c0 12.972656 10.558594 23.53125 23.53125 23.53125h32.066407c12.976562 0 23.53125-10.558594 23.53125-23.53125v-8.535157h8.53125c9.125 0 16.546875 7.425782 16.546875 16.550782v192.386718c0 9.125-7.421875 16.546876-16.546875 16.546876h-96.191407c-9.125 0-16.550781-7.421876-16.550781-16.546876v-8.015624c0-4.140626-3.355469-7.5-7.5-7.5-4.140625 0-7.5 3.359374-7.5 7.5v8.015624c0 17.394532 14.152344 31.546876 31.550781 31.546876h96.191407c17.398437 0 31.546875-14.152344 31.546875-31.546876v-192.386718c.003906-17.398438-14.148438-31.550782-31.542969-31.550782zm-127.742187 31.550782v16.546875h-25.082032v-8.53125c0-4.144531-3.359375-7.5-7.5-7.5-4.144531 0-7.5 3.355469-7.5 7.5v8.53125h-73.179687v-8.53125c0-4.144531-3.355469-7.5-7.5-7.5-4.140625 0-7.5 3.355469-7.5 7.5v8.53125h-73.175781v-8.53125c0-4.144531-3.359376-7.5-7.5-7.5-4.140626 0-7.5 3.355469-7.5 7.5v8.53125h-73.175782v-24.5625c0-4.707031 3.828125-8.535157 8.53125-8.535157h256.515625c4.140625 0 7.5-3.355468 7.5-7.5 0-4.140624-3.359375-7.5-7.5-7.5h-256.515625c-12.976562 0-23.53125 10.558594-23.53125 23.535157v24.5625h-16.550781c-9.125 0-16.546875-7.421875-16.546875-16.546875v-160.324219c0-9.125 7.421875-16.546875 16.546875-16.546875h400.808594c9.125 0 16.546875 7.421875 16.546875 16.546875v128.773437h-64.644532c-17.394531 0-31.546874 14.152344-31.546874 31.550782zm104.207031-8.015625c0 4.703125-3.828125 8.53125-8.53125 8.53125h-32.0625c-4.707031 0-8.535157-3.828125-8.535157-8.53125v-8.535157h48.558594c.019532 0 .039063.003907.054688.003907.019531 0 .039062-.003907.058594-.003907h.460937v8.535157zm0 0"/><path d="m264.015625 128.757812h-64.128906c-4.140625 0-7.5 3.355469-7.5 7.5 0 4.140626 3.359375 7.5 7.5 7.5h64.128906c4.140625 0 7.5-3.359374 7.5-7.5 0-4.144531-3.359375-7.5-7.5-7.5zm0 0"/><path d="m304.097656 128.757812h-8.015625c-4.144531 0-7.5 3.355469-7.5 7.5 0 4.140626 3.355469 7.5 7.5 7.5h8.015625c4.140625 0 7.5-3.359374 7.5-7.5 0-4.144531-3.359375-7.5-7.5-7.5zm0 0"/><path d="m167.824219 128.757812h-8.015625c-4.144532 0-7.5 3.355469-7.5 7.5 0 4.140626 3.355468 7.5 7.5 7.5h8.015625c4.140625 0 7.5-3.359374 7.5-7.5 0-4.144531-3.359375-7.5-7.5-7.5zm0 0"/><path d="m55.597656 47.5625h352.710938c4.140625 0 7.5-3.355469 7.5-7.5 0-4.140625-3.359375-7.5-7.5-7.5h-352.710938c-4.144531 0-7.5 3.359375-7.5 7.5 0 4.144531 3.355469 7.5 7.5 7.5zm0 0"/><path d="m415.808594 72.128906c0-4.144531-3.359375-7.5-7.5-7.5h-352.710938c-4.144531 0-7.5 3.355469-7.5 7.5 0 4.140625 3.355469 7.5 7.5 7.5h352.710938c4.140625 0 7.5-3.359375 7.5-7.5zm0 0"/><path d="m439.894531 328.683594c0 4.164062-3.375 7.539062-7.539062 7.539062-4.164063 0-7.539063-3.375-7.539063-7.539062 0-4.164063 3.375-7.539063 7.539063-7.539063 4.164062 0 7.539062 3.375 7.539062 7.539063zm0 0"/><path d="m471.746094 277.570312c2.132812-3.550781.984375-8.160156-2.566406-10.292968-22.714844-13.644532-50.933594-13.644532-73.648438 0-3.550781 2.132812-4.699219 6.742187-2.566406 10.292968 1.40625 2.339844 3.890625 3.640626 6.433594 3.640626 1.316406 0 2.648437-.347657 3.855468-1.074219 17.949219-10.785157 40.25-10.785157 58.199219 0 3.550781 2.132812 8.160156.984375 10.292969-2.566407zm0 0"/><path d="m448.792969 308.734375c2.546875 0 5.03125-1.296875 6.4375-3.640625 2.132812-3.550781.984375-8.160156-2.570313-10.289062-12.523437-7.523438-28.085937-7.523438-40.613281 0-3.550781 2.128906-4.699219 6.738281-2.570313 10.289062 2.132813 3.550781 6.738282 4.703125 10.292969 2.570312 7.761719-4.660156 17.40625-4.660156 25.171875 0 1.207032.722657 2.539063 1.070313 3.851563 1.070313zm0 0"/></svg>