<?xml version="1.0" encoding="iso-8859-1"?>
<!-- Generator: Adobe Illustrator 19.0.0, SVG Export Plug-In . SVG Version: 6.00 Build 0)  -->
<svg version="1.1" id="Capa_1" xmlns="http://www.w3.org/2000/svg" xmlns:xlink="http://www.w3.org/1999/xlink" x="0px" y="0px"
	 viewBox="0 0 479.983 479.983" style="enable-background:new 0 0 479.983 479.983;" xml:space="preserve">
<g>
	<g>
		<path d="M225.485,115.862c-24.784-21.661-56.586-33.594-89.503-33.583C60.907,82.254,0.026,143.093,0,218.169
			c-0.011,32.916,11.921,64.718,33.583,89.503c14.449,16.511,22.409,37.708,22.4,59.648v48.128c0,14.528,7.876,27.913,20.576,34.968
			l40,22.224c12.069,6.752,26.779,6.752,38.848,0l40-22.224c12.7-7.055,20.576-20.44,20.576-34.968V367.32
			c-0.009-21.94,7.951-43.137,22.4-59.648C287.788,251.143,282.013,165.267,225.485,115.862z M147.639,458.655
			c-7.244,4.047-16.068,4.047-23.312,0l-29.472-16.376h82.256L147.639,458.655z M199.983,415.447
			c-0.045,3.777-0.985,7.489-2.744,10.832H74.727c-1.759-3.343-2.699-7.055-2.744-10.832v-5.168h128V415.447z M199.983,394.279h-128
			v-16h128V394.279z M226.383,297.135c-15.871,18.12-25.134,41.083-26.28,65.144H71.863c-1.146-24.061-10.409-47.023-26.28-65.144
			C1.978,247.226,7.088,171.419,56.997,127.814c49.909-43.605,125.717-38.494,169.321,11.415
			c39.509,45.221,39.509,112.685,0,157.907L226.383,297.135z"/>
	</g>
</g>
<g>
	<g>
		<path d="M109.975,117.583c-5.947,1.522-11.746,3.573-17.328,6.128l6.672,14.568c4.723-2.163,9.627-3.906,14.656-5.208
			L109.975,117.583z"/>
	</g>
</g>
<g>
	<g>
		<path d="M66.647,140.759c-22.044,19.741-34.648,47.929-34.664,77.52h16c0.016-25.041,10.682-48.894,29.336-65.6L66.647,140.759z"
			/>
	</g>
</g>
<g>
	<g>
		<path d="M327.983,42.279c-4.418,0-8,3.582-8,8c0,4.418,3.582,8,8,8c52.996,0.057,95.943,43.004,96,96c0,4.418,3.582,8,8,8
			c4.418,0,8-3.582,8-8C439.917,92.451,389.811,42.345,327.983,42.279z"/>
	</g>
</g>
<g>
	<g>
		<path d="M327.983,82.279c-4.418,0-8,3.582-8,8c0,4.418,3.582,8,8,8c30.913,0.035,55.965,25.087,56,56c0,4.418,3.582,8,8,8
			c4.418,0,8-3.582,8-8C399.939,114.533,367.729,82.323,327.983,82.279z"/>
	</g>
</g>
<g>
	<g>
		<path d="M327.983,2.279c-4.418,0-8,3.582-8,8c0,4.418,3.582,8,8,8c75.076,0.084,135.916,60.924,136,136c0,4.418,3.582,8,8,8
			c4.418,0,8-3.582,8-8C479.89,70.37,411.892,2.372,327.983,2.279z"/>
	</g>
</g>
<g>
	<g>
		<path d="M327.983,122.279c-17.673,0-32,14.327-32,32s14.327,32,32,32c17.673,0,32-14.327,32-32
			C359.983,136.606,345.656,122.279,327.983,122.279z M327.983,170.279c-8.837,0-16-7.163-16-16c0-8.837,7.163-16,16-16
			c8.837,0,16,7.163,16,16C343.983,163.116,336.819,170.279,327.983,170.279z"/>
	</g>
</g>
<g>
</g>
<g>
</g>
<g>
</g>
<g>
</g>
<g>
</g>
<g>
</g>
<g>
</g>
<g>
</g>
<g>
</g>
<g>
</g>
<g>
</g>
<g>
</g>
<g>
</g>
<g>
</g>
<g>
</g>
</svg>
